<svg width="40" height="40" viewBox="0 0 40 40" fill="none" xmlns="http://www.w3.org/2000/svg">
<path d="M6.66602 9.99967C6.66602 8.15873 8.1584 6.66634 9.99935 6.66634C11.8403 6.66634 13.3327 8.15873 13.3327 9.99967H16.666C16.666 6.31778 13.6812 3.33301 9.99935 3.33301C6.31745 3.33301 3.33268 6.31778 3.33268 9.99967C3.33268 13.6816 6.31745 16.6663 9.99935 16.6663V13.333C8.1584 13.333 6.66602 11.8406 6.66602 9.99967Z" fill="#2269D3"/>
<path fill-rule="evenodd" clip-rule="evenodd" d="M19.9993 11.6663C16.3174 11.6663 13.3327 14.6511 13.3327 18.333C13.3327 22.0149 16.3174 24.9997 19.9993 24.9997C23.6812 24.9997 26.666 22.0149 26.666 18.333C26.666 14.6511 23.6812 11.6663 19.9993 11.6663ZM16.666 18.333C16.666 16.4921 18.1584 14.9997 19.9993 14.9997C21.8403 14.9997 23.3327 16.4921 23.3327 18.333C23.3327 20.174 21.8403 21.6663 19.9993 21.6663C18.1584 21.6663 16.666 20.174 16.666 18.333Z" fill="#2269D3"/>
<path d="M29.9993 6.66634C31.8403 6.66634 33.3327 8.15873 33.3327 9.99967C33.3327 11.8406 31.8403 13.333 29.9993 13.333V16.6663C33.6812 16.6663 36.666 13.6816 36.666 9.99967C36.666 6.31778 33.6812 3.33301 29.9993 3.33301C26.3174 3.33301 23.3327 6.31778 23.3327 9.99967H26.666C26.666 8.15873 28.1584 6.66634 29.9993 6.66634Z" fill="#2269D3"/>
<path d="M14.9993 34.9997C14.9993 32.2382 17.2379 29.9997 19.9993 29.9997C22.7608 29.9997 24.9993 32.2382 24.9993 34.9997H28.3327C28.3327 30.3973 24.6017 26.6663 19.9993 26.6663C15.397 26.6663 11.666 30.3973 11.666 34.9997H14.9993Z" fill="#2269D3"/>
<path d="M9.99935 21.6663C7.23792 21.6663 4.99935 23.9049 4.99935 26.6663H1.66602C1.66602 22.064 5.39698 18.333 9.99935 18.333V21.6663Z" fill="#2269D3"/>
<path d="M34.9993 26.6663C34.9993 23.9049 32.7608 21.6663 29.9993 21.6663V18.333C34.6017 18.333 38.3327 22.064 38.3327 26.6663H34.9993Z" fill="#2269D3"/>
</svg>
