<svg width="40" height="40" viewBox="0 0 40 40" fill="none" xmlns="http://www.w3.org/2000/svg">
<path d="M39.0228 24.9998L29.0228 34.9998H9.02279L6.17773 37.8449L3.82096 35.4881L7.64258 31.6665H27.6426L34.3092 24.9998L31.666 22.3566L27.3561 26.6665H23.3327V29.9998H13.3327V26.6665H19.9993V23.3332H10.6895L4.51107 29.5116L2.1543 27.1548L9.30924 19.9998H23.3327V23.3332H25.9759L31.666 17.6431L39.0228 24.9998Z" fill="#2269D3"/>
<path d="M21.4007 4.18929C22.8941 2.94556 25.0484 3.06957 26.4007 4.47737C27.8662 6.00308 27.8659 8.47722 26.4007 10.0031L19.9993 16.6665L13.598 10.0031C12.1328 8.47722 12.1325 6.00308 13.598 4.47737C14.9503 3.06957 17.1046 2.94556 18.598 4.18929L19.9993 5.35791L21.4007 4.18929Z" fill="#2269D3"/>
</svg>
