<svg width="40" height="40" viewBox="0 0 40 40" fill="none" xmlns="http://www.w3.org/2000/svg">
<path d="M18.334 11.6663V20.69L23.8221 26.1782L26.1792 23.8212L21.6673 19.3093V11.6663H18.334Z" fill="#2269D3"/>
<path fill-rule="evenodd" clip-rule="evenodd" d="M3.33398 19.9997C3.33398 10.7949 10.7959 3.33301 20.0007 3.33301C29.2054 3.33301 36.6673 10.7949 36.6673 19.9997C36.6673 29.2044 29.2054 36.6663 20.0007 36.6663C10.7959 36.6663 3.33398 29.2044 3.33398 19.9997ZM20.0007 6.66634C12.6369 6.66634 6.66732 12.6359 6.66732 19.9997C6.66732 27.3635 12.6369 33.333 20.0007 33.333C27.3644 33.333 33.334 27.3635 33.334 19.9997C33.334 12.6359 27.3644 6.66634 20.0007 6.66634Z" fill="#2269D3"/>
</svg>
