<svg width="24" height="24" viewBox="0 0 24 24" fill="none" xmlns="http://www.w3.org/2000/svg">
<path d="M18.1339 5.86612C17.8995 5.6317 17.5815 5.5 17.25 5.5C16.9185 5.5 16.6005 5.6317 16.3661 5.86612C16.1317 6.10054 16 6.41848 16 6.75C16 7.08152 16.1317 7.39946 16.3661 7.63388C16.6005 7.8683 16.9185 8 17.25 8C17.5815 8 17.8995 7.8683 18.1339 7.63388C18.3683 7.39946 18.5 7.08152 18.5 6.75C18.5 6.41848 18.3683 6.10054 18.1339 5.86612Z" fill="#2269D3"/>
<path fill-rule="evenodd" clip-rule="evenodd" d="M15.5355 8.46447C14.5979 7.52678 13.3261 7 12 7C10.6739 7 9.40215 7.52678 8.46447 8.46447C7.52678 9.40215 7 10.6739 7 12C7 13.3261 7.52678 14.5979 8.46447 15.5355C9.40215 16.4732 10.6739 17 12 17C13.3261 17 14.5979 16.4732 15.5355 15.5355C16.4732 14.5979 17 13.3261 17 12C17 10.6739 16.4732 9.40215 15.5355 8.46447ZM9.87868 9.87868C10.4413 9.31607 11.2044 9 12 9C12.7956 9 13.5587 9.31607 14.1213 9.87868C14.6839 10.4413 15 11.2044 15 12C15 12.7956 14.6839 13.5587 14.1213 14.1213C13.5587 14.6839 12.7956 15 12 15C11.2044 15 10.4413 14.6839 9.87868 14.1213C9.31607 13.5587 9 12.7956 9 12C9 11.2044 9.31607 10.4413 9.87868 9.87868Z" fill="#2269D3"/>
<path fill-rule="evenodd" clip-rule="evenodd" d="M16.2 2H7.8C6.26174 2 4.78649 2.61107 3.69878 3.69878C2.61107 4.78649 2 6.26174 2 7.8V16.2C2 19.4 4.6 22 7.8 22H16.2C17.7383 22 19.2135 21.3889 20.3012 20.3012C21.3889 19.2135 22 17.7383 22 16.2V7.8C22 4.6 19.4 2 16.2 2ZM5.05442 5.05442C5.72955 4.37928 6.64522 4 7.6 4H16.4C18.39 4 20 5.61 20 7.6V16.4C20 17.3548 19.6207 18.2705 18.9456 18.9456C18.2705 19.6207 17.3548 20 16.4 20H7.6C5.61 20 4 18.39 4 16.4V7.6C4 6.64522 4.37928 5.72955 5.05442 5.05442Z" fill="#2269D3"/>
</svg>
