<svg width="40" height="40" viewBox="0 0 40 40" fill="none" xmlns="http://www.w3.org/2000/svg">
<path fill-rule="evenodd" clip-rule="evenodd" d="M6.66602 1.66699V5.00033H1.66602V36.667H38.3327V5.00033H33.3327V1.66699H29.4362C28.61 1.66699 27.7852 1.73525 26.9702 1.87108L25.4639 2.12213C23.6202 2.42942 21.8773 3.17521 20.3819 4.29672L19.9993 4.58366L19.6168 4.29672C18.1214 3.17521 16.3785 2.42942 14.5348 2.12213L13.0285 1.87108C12.2135 1.73525 11.3887 1.66699 10.5625 1.66699H6.66602ZM9.99935 28.3419V5.00033H10.5625C11.2051 5.00033 11.8466 5.05342 12.4805 5.15906L13.9868 5.41011C15.3037 5.6296 16.5487 6.16231 17.6168 6.96339L18.3327 7.50033V30.6369L18.047 30.4941C17.5532 30.2472 17.0426 30.0357 16.5189 29.8611L14.2457 29.1034C12.8735 28.646 11.4432 28.3898 9.99935 28.3419ZM21.666 30.6369L21.9517 30.4941C22.4454 30.2472 22.9561 30.0357 23.4798 29.8611L25.753 29.1034C27.1252 28.646 28.5555 28.3898 29.9993 28.3419V5.00033H29.4362C28.7936 5.00033 28.1521 5.05342 27.5182 5.15906L26.0119 5.41011C24.695 5.6296 23.45 6.16231 22.3819 6.96339L21.666 7.50033V30.6369ZM33.3327 8.33366H34.9993V33.3337H23.7408C23.9996 33.2168 24.2644 33.1133 24.5339 33.0234L26.8071 32.2657C27.9967 31.8692 29.2424 31.667 30.4964 31.667H33.3327V8.33366ZM15.4648 33.0234C15.7343 33.1133 15.9991 33.2168 16.2579 33.3337H4.99935V8.33366H6.66602V31.667H9.50231C10.7563 31.667 12.002 31.8692 13.1916 32.2657L15.4648 33.0234Z" fill="#2269D3"/>
</svg>
