<svg width="40" height="40" viewBox="0 0 40 40" fill="none" xmlns="http://www.w3.org/2000/svg">
<path fill-rule="evenodd" clip-rule="evenodd" d="M14.9993 15C14.9993 12.2386 17.2379 10 19.9993 10C22.7608 10 24.9993 12.2386 24.9993 15C24.9993 17.7614 22.7608 20 19.9993 20C17.2379 20 14.9993 17.7614 14.9993 15ZM19.9993 13.3333C19.0789 13.3333 18.3327 14.0795 18.3327 15C18.3327 15.9205 19.0789 16.6667 19.9993 16.6667C20.9198 16.6667 21.666 15.9205 21.666 15C21.666 14.0795 20.9198 13.3333 19.9993 13.3333Z" fill="#2269D3"/>
<path fill-rule="evenodd" clip-rule="evenodd" d="M34.9993 5H4.99935V30H34.9993V5ZM27.6393 26.6667H31.666V8.33333H8.33268V26.6667H12.3594C13.6453 23.7235 16.5821 21.6667 19.9993 21.6667C23.4165 21.6667 26.3533 23.7235 27.6393 26.6667ZM16.2725 26.6667H23.7262C22.8107 25.6438 21.4802 25 19.9993 25C18.5185 25 17.188 25.6438 16.2725 26.6667Z" fill="#2269D3"/>
<path d="M38.3327 35V31.6667H1.66602V35H38.3327Z" fill="#2269D3"/>
</svg>
