<svg width="24" height="24" viewBox="0 0 24 24" fill="none" xmlns="http://www.w3.org/2000/svg">
<path d="M15.5402 3C15.5399 4.03743 15.9166 5.03962 16.6002 5.82C17.9602 7.39 19.8402 7.3 19.8402 7.3V10.39C18.2975 10.3926 16.7932 9.90985 15.5402 9.01V15.3C15.5402 18.45 12.9902 21 9.85016 21C6.92016 21 4.16016 18.63 4.16016 15.3C4.16016 11.88 7.18016 9.2 10.6302 9.66V12.82C8.92016 12.29 7.26016 13.58 7.26016 15.3C7.26016 16.74 8.44016 17.9 9.86016 17.9C10.5316 17.8999 11.1768 17.6393 11.6599 17.1729C12.143 16.7066 12.4263 16.071 12.4502 15.4V3H15.5402Z" fill="#2269D3"/>
</svg>
