<svg width="32" height="32" viewBox="0 0 32 32" fill="none" xmlns="http://www.w3.org/2000/svg">
<g clip-path="url(#clip0_2887_985)">
<path d="M21.642 18.4404C21.8402 18.537 21.9994 18.6146 22.081 18.6537C22.147 18.6854 22.2077 18.7134 22.2634 18.7391C22.4893 18.8432 22.6328 18.9094 22.7077 19.0271C22.801 19.1737 22.801 19.8271 22.521 20.6004C22.2544 21.3737 20.9344 22.0804 20.2944 22.1737C19.721 22.2537 19.001 22.2937 18.2144 22.0404C17.7344 21.8937 17.121 21.6937 16.3344 21.3471C13.1731 19.9831 11.0476 16.8764 10.7271 16.4079C10.7123 16.3863 10.7014 16.3704 10.6944 16.3604L10.6918 16.3569C10.522 16.1306 9.34771 14.5652 9.34771 12.9471C9.34771 11.4463 10.0741 10.6492 10.4169 10.273C10.4456 10.2414 10.4717 10.2129 10.4944 10.1871C10.801 9.85374 11.1477 9.77374 11.3744 9.77374H12.0144C12.0375 9.77528 12.0618 9.77557 12.0869 9.77588C12.279 9.7782 12.5252 9.78117 12.761 10.3471C13.0277 11.0137 13.6944 12.6404 13.7744 12.8004C13.8544 12.9604 13.9077 13.1471 13.801 13.3737C13.7919 13.3919 13.7831 13.4096 13.7745 13.4269C13.6823 13.6124 13.6141 13.7497 13.4677 13.9204C13.4166 13.98 13.3628 14.045 13.3085 14.1107C13.1926 14.2508 13.0742 14.3939 12.9744 14.4937C12.801 14.6671 12.641 14.8404 12.8277 15.1737C13.0277 15.5071 13.681 16.5871 14.6677 17.4671C15.7394 18.4247 16.6745 18.8267 17.1315 19.0232C17.209 19.0565 17.2727 19.0839 17.321 19.1071C17.6544 19.2804 17.8544 19.2537 18.041 19.0271C18.2277 18.8137 18.8544 18.0671 19.081 17.7337C19.3077 17.4137 19.521 17.4671 19.8277 17.5737C20.0492 17.6644 21.0309 18.1427 21.642 18.4404Z" fill="#2269D3"/>
<path fill-rule="evenodd" clip-rule="evenodd" d="M21.1179 3.66714C22.7226 4.3333 24.1786 5.31231 25.401 6.54707C27.8944 9.0404 29.2677 12.3604 29.2677 15.8937C29.2677 23.1737 23.3344 29.1071 16.0544 29.1071C13.841 29.1071 11.6677 28.5471 9.73437 27.4937L2.73438 29.3337L4.60104 22.4804C3.45437 20.4804 2.84104 18.2137 2.84104 15.8804C2.84104 8.6004 8.77437 2.66707 16.0544 2.66707C17.7919 2.66102 19.5132 3.00098 21.1179 3.66714ZM10.4544 25.3337C12.1477 26.3337 14.081 26.8671 16.0544 26.8671C22.1077 26.8671 27.041 21.9471 27.0144 15.8937C27.0198 14.4499 26.7385 13.0193 26.1869 11.685C25.6353 10.3506 24.8244 9.13902 23.801 8.12041C21.7344 6.04041 18.9744 4.89374 16.041 4.89374C9.98771 4.89374 5.05437 9.82707 5.05437 15.8804C5.0559 17.9461 5.63804 19.9697 6.73437 21.7204L7.00104 22.1337L5.89437 26.1871L10.0544 25.0937L10.4544 25.3337Z" fill="#2269D3"/>
</g>
<defs>
<clipPath id="clip0_2887_985">
<rect width="32" height="32" fill="white"/>
</clipPath>
</defs>
</svg>
