<svg width="24" height="24" viewBox="0 0 24 24" fill="none" xmlns="http://www.w3.org/2000/svg">
<g clip-path="url(#clip0_2962_1059)">
<path d="M16.2315 13.8301C16.3801 13.9025 16.4996 13.9607 16.5608 13.9901C16.6102 14.0138 16.6558 14.0348 16.6975 14.0541C16.867 14.1322 16.9746 14.1818 17.0308 14.2701C17.1008 14.3801 17.1008 14.8701 16.8908 15.4501C16.6908 16.0301 15.7008 16.5601 15.2208 16.6301C14.7908 16.6901 14.2508 16.7201 13.6608 16.5301C13.3008 16.4201 12.8408 16.2701 12.2508 16.0101C9.87979 14.9871 8.28572 12.6571 8.0453 12.3057C8.03425 12.2895 8.02606 12.2775 8.02078 12.2701L8.01884 12.2675C7.89149 12.0977 7.01078 10.9237 7.01078 9.71006C7.01078 8.58446 7.55557 7.98662 7.81266 7.7045C7.83422 7.68084 7.85376 7.6594 7.87078 7.64006C8.10078 7.39006 8.36078 7.33006 8.53078 7.33006H9.01078C9.02815 7.33122 9.04632 7.33144 9.06519 7.33166C9.20928 7.3334 9.39394 7.33564 9.57078 7.76006C9.77078 8.26006 10.2708 9.48006 10.3308 9.60006C10.3908 9.72006 10.4308 9.86006 10.3508 10.0301C10.344 10.0437 10.3374 10.057 10.3309 10.07C10.2617 10.209 10.2105 10.312 10.1008 10.4401C10.0625 10.4848 10.0221 10.5335 9.98135 10.5828C9.89444 10.6879 9.80566 10.7952 9.73078 10.8701C9.60078 11.0001 9.48078 11.1301 9.62078 11.3801C9.77078 11.6301 10.2608 12.4401 11.0008 13.1001C11.8045 13.8183 12.5059 14.1198 12.8486 14.2671C12.9067 14.2921 12.9545 14.3127 12.9908 14.3301C13.2408 14.4601 13.3908 14.4401 13.5308 14.2701C13.6708 14.1101 14.1408 13.5501 14.3108 13.3001C14.4808 13.0601 14.6408 13.1001 14.8708 13.1801C15.0369 13.248 15.7732 13.6068 16.2315 13.8301Z" fill="#2269D3"/>
<path fill-rule="evenodd" clip-rule="evenodd" d="M15.8384 2.75011C17.042 3.24973 18.134 3.98399 19.0508 4.91006C20.9208 6.78006 21.9508 9.27006 21.9508 11.9201C21.9508 17.3801 17.5008 21.8301 12.0408 21.8301C10.3808 21.8301 8.75078 21.4101 7.30078 20.6201L2.05078 22.0001L3.45078 16.8601C2.59078 15.3601 2.13078 13.6601 2.13078 11.9101C2.13078 6.45006 6.58078 2.00006 12.0408 2.00006C13.3439 1.99552 14.6349 2.25049 15.8384 2.75011ZM7.84078 19.0001C9.11078 19.7501 10.5608 20.1501 12.0408 20.1501C16.5808 20.1501 20.2808 16.4601 20.2608 11.9201C20.2648 10.8372 20.0539 9.76425 19.6402 8.76348C19.2265 7.76272 18.6183 6.85402 17.8508 6.09006C16.3008 4.53006 14.2308 3.67006 12.0308 3.67006C7.49078 3.67006 3.79078 7.37006 3.79078 11.9101C3.79192 13.4593 4.22853 14.977 5.05078 16.2901L5.25078 16.6001L4.42078 19.6401L7.54078 18.8201L7.84078 19.0001Z" fill="#2269D3"/>
</g>
<defs>
<clipPath id="clip0_2962_1059">
<rect width="24" height="24" fill="white"/>
</clipPath>
</defs>
</svg>
